# xmcd CD database file
#
# Track frame offsets:
#	150
#	12536
#	25521
#	38987
#	52236
#	64014
#	77979
#	92792
#	105819
#	116698
#	131176
#	148134
#	157505
#	170972
#	183499
#	199471
#	215089
#	229508
#	244338
#	258034
#	271466
#	284604
#	297611
#	320900
#	332286
#	347272
#
# Disc length: 4789 seconds
#
# Revision: 2
# Processed by: cddbd v1.5.2PL0 Copyright (c) Steve Scherf et al.
# Submitted via: CDex 1.51
#
DISCID=9112b31a
DTITLE=Various Artist - ZoomTP60-D-9
DYEAR=1900
DGENRE=Blues
TTITLE0=The Searchers - Sweets For My Sweet
TTITLE1=Bobby Vee - Take Good Care Of My Baby
TTITLE2=Ken Dodd - Tears
TTITLE3=Ricky Valance - Tell Laura I Love Her
TTITLE4=Joe Brown and The Bruvvers - That's What Love Will Do
TTITLE5=Lulu - The Boat That I Row
TTITLE6=The Seekers - The Carnival Is Over
TTITLE7=Dave Berry - The Crying Game
TTITLE8=Wayne Fontana and The Mindbenders - The Game Of Love
TTITLE9=Engelbert Humperdinck - The Last Waltz
TTITLE10=Dave Dee Dozy Beaky Mick and Tich - The Legend Of Xanadu
TTITLE11=The Box Tops - The Letter
TTITLE12=Chris Montez - The More I See You
TTITLE13=Bobby Vee - The Night Has A Thousand Eyes
TTITLE14=The Walker Brothers - The Sun Ain't Gonna Shine Anymore
TTITLE15=Bob Dylan - The Times They Are A-Changing
TTITLE16=Smokey Robinson and The Miracles - The Tracks Of My Tears
TTITLE17=Cliff Richard - The Young Ones
TTITLE18=Engelbert Humperdinck - There Goes My Everything
TTITLE19=Sandie Shaw - There's Always Something There To Remind Me
TTITLE20=Nancy Sinatra - These Boots Are Made For Walking
TTITLE21=Bobby Darin - Things
TTITLE22=Mary Hopkins - Those Were The Days
TTITLE23=Eddie Cochran - Three Steps To Heaven
TTITLE24=The Beatles - Ticket To Ride
TTITLE25=The Kinks - Tired Of Waiting For You
EXTD=
EXTT0=
EXTT1=
EXTT2=
EXTT3=
EXTT4=
EXTT5=
EXTT6=
EXTT7=
EXTT8=
EXTT9=
EXTT10=
EXTT11=
EXTT12=
EXTT13=
EXTT14=
EXTT15=
EXTT16=
EXTT17=
EXTT18=
EXTT19=
EXTT20=
EXTT21=
EXTT22=
EXTT23=
EXTT24=
EXTT25=
PLAYORDER=
